<svg xmlns="http://www.w3.org/2000/svg" width="96" height="96" fill="none" viewBox="0 0 96 96" id="light-bulb">
  <path fill="url(#paint0_linear_561_5036)" fill-rule="evenodd" d="M48 17.9241C49.0802 17.9241 50 17.0782 50 15.9981V10.1574C50 8.96591 49.1046 8 48 8C46.8954 8 46 8.96591 46 10.1574V15.9981C46 17.0782 46.9198 17.9241 48 17.9241ZM64.8194 20.7359C64.2583 21.7078 62.9931 21.9946 62.0212 21.4335C61.0494 20.8724 60.6652 19.6333 61.2263 18.6614L63.9587 13.9287C64.5316 12.9365 65.8003 12.5966 66.7925 13.1694C67.7847 13.7423 68.1247 15.011 67.5518 16.0032L64.8194 20.7359ZM47.5 25.5C36.986 25.5 28.5 33.9436 28.5 44.3134C28.5 48.7317 30.0351 52.7901 32.6113 56.0025C36.0987 60.3511 40.3039 65.929 40.3039 72.5975V73C40.3039 74.933 41.8709 76.5 43.8039 76.5H51.1961C53.1291 76.5 54.6961 74.933 54.6961 73V72.5975C54.6961 65.9289 58.9013 60.3511 62.3887 56.0025C64.9649 52.7901 66.5 48.7317 66.5 44.3134C66.5 33.9436 58.014 25.5 47.5 25.5ZM23.5 44.3134C23.5 31.1411 34.2658 20.5 47.5 20.5C60.7342 20.5 71.5 31.1411 71.5 44.3134C71.5 49.9136 69.5488 55.0663 66.2893 59.1306C62.6771 63.6349 59.6961 67.9181 59.6961 72.5975V73C59.6961 76.5226 57.5533 79.5447 54.5 80.834V81.5C54.5 85.366 51.366 88.5 47.5 88.5C43.634 88.5 40.5 85.366 40.5 81.5V80.834C37.4467 79.5447 35.3039 76.5226 35.3039 73V72.5975C35.3039 67.9181 32.3229 63.6349 28.7107 59.1306C25.4512 55.0663 23.5 49.9136 23.5 44.3134ZM45.5 81.5C45.5 82.6046 46.3954 83.5 47.5 83.5C48.6046 83.5 49.5 82.6046 49.5 81.5H45.5ZM48 32.5C41.9519 32.5 36.5 38.2201 36.5 46C36.5 47.3807 35.3807 48.5 34 48.5C32.6193 48.5 31.5 47.3807 31.5 46C31.5 36.1067 38.5842 27.5 48 27.5C49.3807 27.5 50.5 28.6193 50.5 30C50.5 31.3807 49.3807 32.5 48 32.5ZM18.2484 45C19.3296 45 20.1774 45.9189 20.1774 47C20.1774 48.0811 19.3296 49 18.2484 49H11.0699C9.92672 49 9 48.1046 9 47C9 45.8954 9.92672 45 11.0699 45H18.2484ZM76.7516 49C75.6704 49 74.8226 48.0811 74.8226 47C74.8226 45.9189 75.6704 45 76.7516 45H83.9301C85.0733 45 86 45.8954 86 47C86 48.1046 85.0733 49 83.9301 49H76.7516ZM72.3936 32.4789C72.9495 33.4417 74.1886 33.8058 75.135 33.2224L80.1563 30.1267C81.1485 29.5538 81.4885 28.2851 80.9156 27.2929C80.3428 26.3007 79.0741 25.9607 78.0819 26.5336L73.0605 29.6293C72.0965 30.2236 71.8274 31.4982 72.3936 32.4789ZM33.7737 18.6612C34.3348 19.6331 33.9507 20.8722 32.9788 21.4333C32.007 21.9944 30.7418 21.7075 30.1807 20.7357L27.4482 16.003C26.8754 15.0108 27.2153 13.742 28.2075 13.1692C29.1997 12.5963 30.4685 12.9363 31.0413 13.9285L33.7737 18.6612ZM22.6064 32.4785C23.1726 31.4978 22.9034 30.2232 21.9395 29.6289L16.918 26.533C15.9258 25.9601 14.657 26.3001 14.0842 27.2923C13.5113 28.2845 13.8513 29.5532 14.8435 30.1261L19.865 33.222C20.8113 33.8054 22.0505 33.4413 22.6064 32.4785Z" clip-rule="evenodd"></path>
  <defs>
    <linearGradient id="paint0_linear_561_5036" x1="47.5" x2="47.5" y1="8" y2="88.5" gradientUnits="userSpaceOnUse">
      <stop stop-color="#00A3FF"></stop>
      <stop offset="1" stop-color="#4100AB"></stop>
    </linearGradient>
  </defs>
</svg>
